<svg width="18" height="18" viewBox="0 0 18 18" fill="none" xmlns="http://www.w3.org/2000/svg">
<path d="M16.8193 7.9375H10.4443V1.5625C10.4443 1.28071 10.3324 1.01046 10.1331 0.811199C9.93388 0.611942 9.66363 0.5 9.38184 0.5C9.10004 0.5 8.82979 0.611942 8.63054 0.811199C8.43128 1.01046 8.31934 1.28071 8.31934 1.5625V7.9375H1.94434C1.66254 7.9375 1.39229 8.04944 1.19304 8.2487C0.993778 8.44796 0.881836 8.71821 0.881836 9C0.881836 9.28179 0.993778 9.55204 1.19304 9.7513C1.39229 9.95056 1.66254 10.0625 1.94434 10.0625H8.31934V16.4375C8.31934 16.7193 8.43128 16.9895 8.63054 17.1888C8.82979 17.3881 9.10004 17.5 9.38184 17.5C9.66363 17.5 9.93388 17.3881 10.1331 17.1888C10.3324 16.9895 10.4443 16.7193 10.4443 16.4375V10.0625H16.8193C17.1011 10.0625 17.3714 9.95056 17.5706 9.7513C17.7699 9.55204 17.8818 9.28179 17.8818 9C17.8818 8.71821 17.7699 8.44796 17.5706 8.2487C17.3714 8.04944 17.1011 7.9375 16.8193 7.9375Z" fill="white"/>
</svg>
