<svg width="22" height="22" viewBox="0 0 22 22" fill="none" xmlns="http://www.w3.org/2000/svg">
<path d="M11.4354 15.344V16.4001C11.4354 16.5707 11.3675 16.7342 11.247 16.8547C11.1263 16.9754 10.9627 17.0432 10.7921 17.0432C10.6215 17.0432 10.4579 16.9754 10.3374 16.8547C10.2167 16.7342 10.149 16.5707 10.149 16.4001V15.3151C9.72326 15.2449 9.31603 15.0897 8.95151 14.8588C8.58706 14.6279 8.27275 14.3261 8.02735 13.9712C7.92895 13.8637 7.87421 13.7232 7.87378 13.5775C7.87368 13.4944 7.89045 13.4121 7.92311 13.3356C7.95577 13.2592 8.00366 13.19 8.06379 13.1326C8.12394 13.0752 8.19507 13.0305 8.27298 13.0014C8.35087 12.9722 8.43388 12.9593 8.51696 12.9632C8.59941 12.9627 8.68089 12.9806 8.75558 13.0154C8.83036 13.0503 8.89641 13.1012 8.94902 13.1648C9.25603 13.5659 9.67286 13.8692 10.149 14.0383V11.6001C8.87222 11.0913 8.22897 10.352 8.22897 9.3824C8.24821 8.86332 8.45222 8.36819 8.80425 7.98623C9.15628 7.60428 9.63321 7.3607 10.149 7.29928V6.23358C10.149 6.06299 10.2167 5.89928 10.3374 5.77865C10.4579 5.65803 10.6215 5.59045 10.7921 5.59045C10.9627 5.59045 11.1263 5.65803 11.247 5.77865C11.3675 5.89928 11.4354 6.06299 11.4354 6.23358V7.28967C11.7942 7.34496 12.138 7.47192 12.4465 7.66327C12.7549 7.85461 13.0217 8.10634 13.2306 8.40319C13.3153 8.51425 13.3653 8.64772 13.3745 8.7871C13.3771 8.86937 13.3632 8.95145 13.3334 9.02825C13.3037 9.10505 13.2588 9.17494 13.2015 9.23408C13.1442 9.29312 13.0756 9.34025 12.9998 9.37232C12.924 9.40438 12.8425 9.42089 12.7601 9.4208C12.6743 9.41974 12.5896 9.40035 12.5119 9.36387C12.434 9.32748 12.3649 9.27488 12.309 9.20969C12.0801 8.92371 11.7783 8.70464 11.4354 8.57592V10.7359L11.6754 10.832C12.8946 11.3024 13.653 11.9935 13.653 13.0975C13.6365 13.6831 13.3983 14.2408 12.9868 14.6577C12.5752 15.0746 12.0207 15.3199 11.4354 15.344ZM10.149 10.1793V8.62397C9.99407 8.68016 9.86063 8.78364 9.76761 8.91977C9.67468 9.0558 9.62678 9.21766 9.63062 9.3824C9.63849 9.5456 9.69091 9.70352 9.78239 9.83897C9.87379 9.97443 10.0006 10.0821 10.149 10.1505V10.1793ZM12.261 13.1263C12.261 12.6559 11.9346 12.3775 11.4354 12.1663V14.0863C11.6711 14.0532 11.886 13.9337 12.0386 13.7509C12.1911 13.5682 12.2704 13.3353 12.261 13.0975V13.1263Z" fill="#9F9F9F"/>
<path d="M11.1568 2.86389H4.84C3.82156 2.86389 2.84491 3.26852 2.12476 3.98866C1.40463 4.7088 1 5.68546 1 6.70389V16.3039C1 17.3223 1.40463 18.299 2.12476 19.0191C2.84491 19.7393 3.82156 20.1439 4.84 20.1439H16.36C17.3785 20.1439 18.3552 19.7393 19.0753 19.0191C19.7955 18.299 20.2 17.3223 20.2 16.3039V10.4766" stroke="#9F9F9F" stroke-width="2" stroke-linecap="round" stroke-linejoin="round"/>
<path d="M20.1997 1.85608L14.7661 7.28968" stroke="#9F9F9F" stroke-width="2" stroke-linecap="round" stroke-linejoin="round"/>
<path d="M19.1149 7.28935H14.7661V2.94055" stroke="#9F9F9F" stroke-width="2" stroke-linecap="round" stroke-linejoin="round"/>
</svg>
