<svg width="24" height="22" viewBox="0 0 24 22" fill="none" xmlns="http://www.w3.org/2000/svg">
<path d="M23.2 0.120117H0.800016C0.358172 0.120117 0 0.478336 0 0.920133V21.0801C0 21.5219 0.358172 21.8801 0.800016 21.8801H23.2C23.6418 21.8801 24 21.522 24 21.0801V0.920133C24 0.478336 23.6418 0.120117 23.2 0.120117ZM6.50667 20.2801H1.59998V5.9868H6.50667V20.2801ZM22.4 20.2801H8.10666V5.9868H22.4V20.2801H22.4ZM22.4 4.38682H7.30716H1.59998V1.72015H22.4V4.38682H22.4Z" fill="#9F9F9F"/>
<path d="M3.04067 3.58573C3.33523 3.58573 3.57401 3.34694 3.57401 3.05239C3.57401 2.75783 3.33523 2.51904 3.04067 2.51904C2.74611 2.51904 2.50732 2.75783 2.50732 3.05239C2.50732 3.34694 2.74611 3.58573 3.04067 3.58573Z" fill="#9F9F9F"/>
<path d="M5.17397 3.58573C5.46853 3.58573 5.70731 3.34694 5.70731 3.05239C5.70731 2.75783 5.46853 2.51904 5.17397 2.51904C4.87941 2.51904 4.64062 2.75783 4.64062 3.05239C4.64062 3.34694 4.87941 3.58573 5.17397 3.58573Z" fill="#9F9F9F"/>
<path d="M7.30727 3.58573C7.60183 3.58573 7.84061 3.34694 7.84061 3.05239C7.84061 2.75783 7.60183 2.51904 7.30727 2.51904C7.01271 2.51904 6.77393 2.75783 6.77393 3.05239C6.77393 3.34694 7.01271 3.58573 7.30727 3.58573Z" fill="#9F9F9F"/>
<path d="M4.99528 8.43994H3.13279C2.72212 8.43994 2.36184 8.74079 2.31679 9.14897C2.26359 9.63155 2.63995 10.04 3.11179 10.04H4.97423C5.3849 10.04 5.74518 9.73913 5.79023 9.33094C5.84348 8.84836 5.46703 8.43994 4.99528 8.43994Z" fill="#9F9F9F"/>
<path d="M4.99528 12.3335H3.13279C2.72212 12.3335 2.36184 12.6343 2.31679 13.0425C2.26359 13.5251 2.63995 13.9335 3.11179 13.9335H4.97423C5.3849 13.9335 5.74518 13.6327 5.79023 13.2245C5.84348 12.742 5.46703 12.3335 4.99528 12.3335Z" fill="#9F9F9F"/>
<path d="M4.99528 16.2266H3.13279C2.72212 16.2266 2.36184 16.5274 2.31679 16.9356C2.26359 17.4182 2.63995 17.8266 3.11179 17.8266H4.97423C5.3849 17.8266 5.74518 17.5257 5.79023 17.1176C5.84348 16.635 5.46703 16.2266 4.99528 16.2266Z" fill="#9F9F9F"/>
<path d="M17.2433 13.1143C19.1958 11.3079 17.9155 8.02832 15.2533 8.02832C12.5899 8.02832 11.3113 11.3083 13.2633 13.1143C12.6837 13.6505 12.3199 14.4169 12.3199 15.2669V17.4002C12.3199 17.842 12.6781 18.2002 13.12 18.2002H17.3866C17.8284 18.2002 18.1866 17.842 18.1866 17.4002V15.2669C18.1866 14.4168 17.8229 13.6505 17.2433 13.1143ZM15.2535 9.6472C17.0156 9.6472 17.0156 12.3139 15.2535 12.3139C13.4915 12.3139 13.4914 9.6472 15.2535 9.6472ZM16.5866 16.6002H13.92V15.2944C13.92 14.6141 14.4727 13.9883 15.1511 13.9374C15.9322 13.8788 16.5866 14.4979 16.5866 15.2669V16.6002Z" fill="#9F9F9F"/>
</svg>
