<svg width="20" height="22" viewBox="0 0 20 22" fill="none" xmlns="http://www.w3.org/2000/svg">
<mask id="mask0_283_211" style="mask-type:alpha" maskUnits="userSpaceOnUse" x="0" y="0" width="20" height="22">
<rect width="20" height="22" fill="#D9D9D9"/>
</mask>
<g mask="url(#mask0_283_211)">
<path fill-rule="evenodd" clip-rule="evenodd" d="M6.63716 8.65355H3.30958C2.82132 8.64953 2.35145 8.83964 2.00335 9.18202C1.65523 9.52439 1.45739 9.99103 1.45337 10.4793V17.389C1.4624 18.4054 2.29329 19.2221 3.30958 19.2135H6.63716C7.12538 19.2177 7.5953 19.0276 7.94343 18.6852C8.29156 18.3428 8.48938 17.8762 8.49337 17.3878V10.4793C8.48938 9.99103 8.29156 9.52439 7.94343 9.18202C7.5953 8.83964 7.12538 8.64953 6.63716 8.65355Z" stroke="#9F9F9F" stroke-width="1.5" stroke-linecap="round" stroke-linejoin="round"/>
<path fill-rule="evenodd" clip-rule="evenodd" d="M6.63716 1.61383H3.30958C2.31373 1.58621 1.48339 2.36983 1.45337 3.36561V4.55537C1.48339 5.55117 2.31373 6.33479 3.30958 6.30716H6.63716C7.63296 6.33479 8.46333 5.55117 8.49337 4.55537V3.36561C8.46333 2.36983 7.63296 1.58621 6.63716 1.61383Z" stroke="#9F9F9F" stroke-width="1.5" stroke-linecap="round" stroke-linejoin="round"/>
<path fill-rule="evenodd" clip-rule="evenodd" d="M12.6962 12.1739H16.0226C16.511 12.1782 16.9812 11.9883 17.3296 11.6459C17.6779 11.3034 17.876 10.8366 17.88 10.3482V3.43954C17.876 2.95129 17.6782 2.48463 17.33 2.14224C16.9819 1.79985 16.512 1.60977 16.0238 1.61383H12.6962C12.208 1.60977 11.738 1.79985 11.3899 2.14224C11.0418 2.48463 10.844 2.95129 10.84 3.43954V10.3482C10.844 10.8364 11.0418 11.303 11.3899 11.6454C11.738 11.9878 12.208 12.1779 12.6962 12.1739Z" stroke="#9F9F9F" stroke-width="1.5" stroke-linecap="round" stroke-linejoin="round"/>
<path fill-rule="evenodd" clip-rule="evenodd" d="M12.6962 19.2141H16.0226C17.0189 19.2423 17.8499 18.4586 17.88 17.4623V16.2725C17.8499 15.2767 17.0196 14.4932 16.0238 14.5207H12.6962C11.7004 14.4932 10.87 15.2767 10.84 16.2725V17.4611C10.8693 18.4574 11.6999 19.2416 12.6962 19.2141Z" stroke="#9F9F9F" stroke-width="1.5" stroke-linecap="round" stroke-linejoin="round"/>
</g>
</svg>
