<svg width="23" height="24" viewBox="0 0 23 24" fill="none" xmlns="http://www.w3.org/2000/svg">
<path d="M6.51927 10.1112C6.29777 10.2968 6.04035 10.3686 5.67517 10.4046V8.429C6.11219 8.57268 6.40553 8.72235 6.59111 8.86602C6.73479 9.0097 6.84853 9.2312 6.84853 9.48862C6.81267 9.74604 6.70491 9.96156 6.51927 10.1112ZM4.94487 4.94484C4.61561 4.98076 4.35819 5.08852 4.17261 5.23818C3.98703 5.42377 3.87927 5.63928 3.87927 5.86078C3.87927 6.1182 3.95111 6.2978 4.10077 6.44746C4.24445 6.59114 4.53779 6.7408 4.94487 6.88448V4.94484ZM22.1621 9.12344V21.2881C22.1621 22.7907 20.9529 24 19.4502 24H2.7119C1.20928 24 0 22.7907 0 21.2881V2.71187C0 1.20925 1.20928 -3.05176e-05 2.7119 -3.05176e-05H13.1883C14.2479 -3.05176e-05 14.7627 0.293309 15.4212 0.987747L21.1384 6.77672C21.9047 7.50708 22.1621 7.986 22.1621 9.12344ZM10.1112 6.41154H14.1401C14.619 6.41154 14.9843 6.04637 14.9843 5.60336V4.98076C14.9843 4.54375 14.619 4.17258 14.1401 4.17258H10.1112V6.41154ZM4.94487 8.24342V10.4046C4.28636 10.2968 3.66376 10.0035 3.04116 9.4527L2.23298 10.4046C3.04116 11.099 3.9571 11.5061 4.94487 11.6138V12.416H5.63931V11.6079C6.41157 11.5719 6.99227 11.3504 7.47119 10.9493C7.90821 10.5482 8.16563 9.99748 8.16563 9.37488C8.16563 8.71636 7.98004 8.23744 7.57895 7.90818C7.17785 7.57892 6.55525 7.28558 5.71115 7.09999H5.67523V5.0107C6.26191 5.08253 6.77675 5.33995 7.24969 5.66921L7.98004 4.64552C7.24969 4.16659 6.47743 3.87325 5.66924 3.83734V3.21474H4.97481V3.7655C4.28037 3.80142 3.69369 4.02292 3.25069 4.42402C2.81367 4.82511 2.55625 5.37587 2.55625 5.99847C2.55625 6.62107 2.77775 7.09999 3.14293 7.46517C3.51409 7.7645 4.10077 8.05784 4.94487 8.24342ZM20.0009 20.1147C20.0009 19.6776 19.6358 19.3065 19.1568 19.3065H2.92735C2.44843 19.3065 2.11917 19.6717 2.11917 20.1147V20.7373C2.11917 21.1743 2.48435 21.5455 2.92735 21.5455H19.1568C19.5939 21.5455 20.0009 21.1803 20.0009 20.7373V20.1147ZM20.0009 15.0561C20.0009 14.619 19.6358 14.2479 19.1568 14.2479H2.92735C2.44843 14.2479 2.11917 14.6131 2.11917 15.0561V15.6787C2.11917 16.1157 2.48435 16.4869 2.92735 16.4869H19.1568C19.5939 16.4869 20.0009 16.1217 20.0009 15.6787V15.0561ZM20.0009 9.99748C20.0009 9.56046 19.6358 9.18929 19.1568 9.18929H10.1112V11.4223H19.1628C19.5999 11.4223 20.0069 11.0571 20.0069 10.6141V9.99748H20.0009Z" fill="#9F9F9F"/>
</svg>
