<svg width="24" height="24" viewBox="0 0 24 24" fill="none" xmlns="http://www.w3.org/2000/svg">
<path d="M23.3714 10.77L18.6955 7.39158C18.3285 7.12636 17.8503 7.09036 17.4472 7.296C17.0441 7.50239 16.7939 7.91161 16.7939 8.3648V10.4H13.1952V7.2C13.1952 4.3328 10.8633 2.00002 7.9971 2.00002H6.65799C6.05338 0.741984 4.92701 0 3.59869 0C1.61463 0 0 1.61517 0 3.6C0 5.58483 1.61463 7.2 3.59869 7.2C4.92701 7.2 6.05338 6.45802 6.65799 5.19998H7.9971C9.09947 5.19998 9.99638 6.09717 9.99638 7.2V10.4H6.65799C6.05343 9.14203 4.92701 8.4 3.59869 8.4C1.61463 8.4 0 10.0152 0 12C0 13.9848 1.61463 15.6 3.59869 15.6C4.92701 15.6 6.05338 14.858 6.65799 13.6H9.99638V16.8C9.99638 17.9028 9.09952 18.8 7.9971 18.8H6.65799C6.05343 17.542 4.92701 16.8 3.59869 16.8C1.61463 16.8 0 18.4152 0 20.4C0 22.3848 1.61463 24 3.59869 24C4.92701 24 6.05338 23.258 6.65799 22H7.9971C10.8633 22 13.1952 19.6672 13.1952 16.8V14H16.7939V15.6352C16.7939 16.0884 17.0442 16.4976 17.4472 16.704C17.8503 16.91 18.3293 16.874 18.6955 16.6084L23.3714 13.23C23.7709 12.9412 24 12.4928 24 12C24 11.5072 23.7709 11.0588 23.3714 10.77Z" fill="#9F9F9F"/>
</svg>
