<svg width="22" height="18" viewBox="0 0 22 18" fill="none" xmlns="http://www.w3.org/2000/svg">
<mask id="mask0_283_219" style="mask-type:alpha" maskUnits="userSpaceOnUse" x="0" y="0" width="22" height="18">
<rect width="22" height="18" fill="#D9D9D9"/>
</mask>
<g mask="url(#mask0_283_219)">
<path fill-rule="evenodd" clip-rule="evenodd" d="M4.65546 2.6465C8.13452 -0.827647 13.7901 -0.790705 17.2903 2.70963C20.7922 6.21147 20.8277 11.8704 17.349 15.349C13.8703 18.8277 8.21143 18.7922 4.70959 15.2903C2.6344 13.2152 1.77745 10.3841 2.14543 7.69943C2.19699 7.32323 2.54375 7.06012 2.91992 7.11168C3.2961 7.16325 3.55925 7.50996 3.5077 7.88616C3.19605 10.1598 3.92133 12.5576 5.68187 14.3181C8.65597 17.2923 13.4442 17.3092 16.3767 14.3767C19.3092 11.4442 19.2922 6.65601 16.318 3.6819C13.3455 0.70931 8.56065 0.690775 5.62774 3.61877L6.31313 3.62222C6.69282 3.62413 6.99907 3.93347 6.99716 4.31317C6.99526 4.69286 6.68591 4.99911 6.30622 4.9972L3.9728 4.98548C3.5958 4.98358 3.29066 4.67843 3.28876 4.30144L3.27704 1.96801C3.27512 1.58833 3.58138 1.27898 3.96107 1.27707C4.34076 1.27516 4.65011 1.58142 4.65202 1.96111L4.65546 2.6465ZM10.9999 4.64576C11.3796 4.64576 11.6874 4.95357 11.6874 5.33326V8.71519L13.7777 10.8055C14.0462 11.074 14.0462 11.5093 13.7777 11.7777C13.5092 12.0462 13.0739 12.0462 12.8055 11.7777L10.3124 9.28472V5.33326C10.3124 4.95357 10.6202 4.64576 10.9999 4.64576Z" fill="#9F9F9F"/>
</g>
</svg>
